<?xml version="1.0" encoding="UTF-8" standalone="no"?>
<svg
   xmlns:dc="http://purl.org/dc/elements/1.1/"
   xmlns:cc="http://creativecommons.org/ns#"
   xmlns:rdf="http://www.w3.org/1999/02/22-rdf-syntax-ns#"
   xmlns:svg="http://www.w3.org/2000/svg"
   xmlns="http://www.w3.org/2000/svg"
   xmlns:sodipodi="http://sodipodi.sourceforge.net/DTD/sodipodi-0.dtd"
   xmlns:inkscape="http://www.inkscape.org/namespaces/inkscape"
   height="16px"
   id="Layer_1"
   style="enable-background:new 0 0 16 16;"
   version="1.1"
   viewBox="0 0 16 16"
   width="16px"
   xml:space="preserve"
   inkscape:version="0.91 r13725"
   sodipodi:docname="icon-view-dark.svg"><metadata
     id="metadata9"><rdf:RDF><cc:Work
         rdf:about=""><dc:format>image/svg+xml</dc:format><dc:type
           rdf:resource="http://purl.org/dc/dcmitype/StillImage" /><dc:title></dc:title></cc:Work></rdf:RDF></metadata><defs
     id="defs7" /><sodipodi:namedview
     pagecolor="#ffffff"
     bordercolor="#666666"
     borderopacity="1"
     objecttolerance="10"
     gridtolerance="10"
     guidetolerance="10"
     inkscape:pageopacity="0"
     inkscape:pageshadow="2"
     inkscape:window-width="1248"
     inkscape:window-height="1028"
     id="namedview5"
     showgrid="false"
     inkscape:zoom="14.75"
     inkscape:cx="8"
     inkscape:cy="8"
     inkscape:window-x="65"
     inkscape:window-y="24"
     inkscape:window-maximized="0"
     inkscape:current-layer="Layer_1" /><path
     d="M8,6c0,1.104-0.896,2-2,2c0,1.104,0.896,2,2,2s2-0.896,2-2S9.104,6,8,6z M8,2C3.898,2,0,6.648,0,8s3.898,6,8,6s8-4.648,8-6  S12.102,2,8,2z M8,12c-2.209,0-4-1.791-4-4s1.791-4,4-4s4,1.791,4,4S10.209,12,8,12z"
     id="path3"
     style="fill:#676f7e;fill-opacity:1" /></svg>