<svg xmlns="http://www.w3.org/2000/svg" viewBox="0 0 48 48" width="51.2" height="51.2"><path style="line-height:normal;font-variant-ligatures:normal;font-variant-position:normal;font-variant-caps:normal;font-variant-numeric:normal;font-variant-alternates:normal;font-feature-settings:normal;text-indent:0;text-align:start;text-decoration-line:none;text-decoration-style:solid;text-decoration-color:#000;text-transform:none;text-orientation:mixed;shape-padding:0;isolation:auto;mix-blend-mode:normal" d="M21.954 4.74a1.5 1.5 0 0 0-.923.354s-1.668 1.533-10.79 10.644H5.145C2.321 15.738 0 18.059 0 20.883V27.118c0 2.824 2.321 5.143 5.145 5.143h5.096c9.122 9.111 10.79 10.646 10.79 10.646a1.5 1.5 0 0 0 2.469-1.146V28.94A5.185 5.185 0 0 0 27 24a5.183 5.183 0 0 0-3.5-4.94V6.237a1.5 1.5 0 0 0-1.546-1.497zM20.5 9.823v10.417a1.5 1.5 0 0 0 1.5 1.5c1.122 0 2 .781 2 2.26 0 1.48-.878 2.262-2 2.262a1.5 1.5 0 0 0-1.5 1.501v10.415c-.623-.586-.658-.552-8.583-8.477a1.5 1.5 0 0 0-1.06-.438H5.144c-1.213 0-2.146-.93-2.146-2.144V20.883c0-1.214.933-2.144 2.146-2.144h5.711a1.5 1.5 0 0 0 1.06-.438c7.926-7.925 7.96-7.892 8.584-8.48zm19.443 1.025a1.5 1.5 0 0 0-.676.18l-6.962 3.645a1.5 1.5 0 1 0 1.39 2.655l6.964-3.642a1.5 1.5 0 0 0-.716-2.838zM32.999 22.5a1.5 1.5 0 1 0 0 3h13.5a1.5 1.5 0 1 0 0-3H33zm-.024 8.348a1.5 1.5 0 0 0-.67 2.838l6.962 3.642a1.5 1.5 0 1 0 1.392-2.657l-6.964-3.644a1.5 1.5 0 0 0-.72-.18z" color="#000" font-weight="400" font-family="sans-serif" white-space="normal" overflow="visible" fill="#fff" fill-opacity=".784" fill-rule="evenodd"/></svg>