<svg xmlns="http://www.w3.org/2000/svg" height="51.2" viewBox="0 0 48 48" width="51.2"><path style="line-height:normal;font-variant-ligatures:normal;font-variant-position:normal;font-variant-caps:normal;font-variant-numeric:normal;font-variant-alternates:normal;font-feature-settings:normal;text-indent:0;text-align:start;text-decoration-line:none;text-decoration-style:solid;text-decoration-color:#000;text-transform:none;text-orientation:mixed;shape-padding:0;isolation:auto;mix-blend-mode:normal" d="M30 7.5c-3.02 0-5.5 2.48-5.5 5.5s2.48 5.5 5.5 5.5 5.5-2.48 5.5-5.5-2.48-5.5-5.5-5.5zm0 3c1.398 0 2.5 1.102 2.5 2.5 0 1.399-1.102 2.5-2.5 2.5s-2.5-1.101-2.5-2.5c0-1.398 1.102-2.5 2.5-2.5zM17.737 19a1.5 1.5 0 0 0-1.047.44L.44 35.69a1.5 1.5 0 1 0 2.12 2.121l15.183-15.183L35.43 40.552a1.5 1.5 0 1 0 2.137-2.105L33.3 34.122l4.259-4.052 7.908 7.518a1.5 1.5 0 1 0 2.065-2.175l-8.94-8.5a1.5 1.5 0 0 0-1.094-.41 1.5 1.5 0 0 0-.974.412l-5.332 5.07-12.374-12.537a1.5 1.5 0 0 0-1.08-.447z" color="#000" font-weight="400" font-family="sans-serif" white-space="normal" overflow="visible" fill="#fff" fill-opacity=".784" fill-rule="evenodd"/></svg>