<?xml version="1.0" encoding="UTF-8" standalone="no"?>
<svg
   xmlns:dc="http://purl.org/dc/elements/1.1/"
   xmlns:cc="http://creativecommons.org/ns#"
   xmlns:rdf="http://www.w3.org/1999/02/22-rdf-syntax-ns#"
   xmlns:svg="http://www.w3.org/2000/svg"
   xmlns="http://www.w3.org/2000/svg"
   xmlns:sodipodi="http://sodipodi.sourceforge.net/DTD/sodipodi-0.dtd"
   xmlns:inkscape="http://www.inkscape.org/namespaces/inkscape"
   enable-background="new 0 0 40 40"
   id="Слой_1"
   version="1.1"
   viewBox="0 0 48 48"
   xml:space="preserve"
   inkscape:version="0.92.1 r15371"
   sodipodi:docname="media-audio-light.svg"
   width="51.200001"
   height="51.200001"><metadata
     id="metadata27"><rdf:RDF><cc:Work
         rdf:about=""><dc:format>image/svg+xml</dc:format><dc:type
           rdf:resource="http://purl.org/dc/dcmitype/StillImage" /><dc:title /></cc:Work></rdf:RDF></metadata><defs
     id="defs25" /><sodipodi:namedview
     pagecolor="#ffffff"
     bordercolor="#666666"
     borderopacity="1"
     objecttolerance="10"
     gridtolerance="10"
     guidetolerance="10"
     inkscape:pageopacity="0"
     inkscape:pageshadow="2"
     inkscape:window-width="1248"
     inkscape:window-height="1028"
     id="namedview23"
     showgrid="false"
     inkscape:zoom="9.3416667"
     inkscape:cx="20.494208"
     inkscape:cy="24.581777"
     inkscape:window-x="65"
     inkscape:window-y="24"
     inkscape:window-maximized="0"
     inkscape:current-layer="Слой_1" /><path
     style="color:#000000;font-style:normal;font-variant:normal;font-weight:normal;font-stretch:normal;font-size:medium;line-height:normal;font-family:sans-serif;font-variant-ligatures:normal;font-variant-position:normal;font-variant-caps:normal;font-variant-numeric:normal;font-variant-alternates:normal;font-feature-settings:normal;text-indent:0;text-align:start;text-decoration:none;text-decoration-line:none;text-decoration-style:solid;text-decoration-color:#000000;letter-spacing:normal;word-spacing:normal;text-transform:none;writing-mode:lr-tb;direction:ltr;text-orientation:mixed;dominant-baseline:auto;baseline-shift:baseline;text-anchor:start;white-space:normal;shape-padding:0;clip-rule:nonzero;display:inline;overflow:visible;visibility:visible;opacity:1;isolation:auto;mix-blend-mode:normal;color-interpolation:sRGB;color-interpolation-filters:linearRGB;solid-color:#000000;solid-opacity:1;vector-effect:none;fill:#ffffff;fill-opacity:0.78431374;fill-rule:evenodd;stroke:none;stroke-width:3.20000005;stroke-linecap:round;stroke-linejoin:round;stroke-miterlimit:4;stroke-dasharray:none;stroke-dashoffset:0;stroke-opacity:1;color-rendering:auto;image-rendering:auto;shape-rendering:auto;text-rendering:auto;enable-background:accumulate"
     d="M 23.417969 5.0566406 A 1.60016 1.60016 0 0 0 22.433594 5.4335938 C 22.433594 5.4335938 20.654191 7.0685571 10.923828 16.787109 L 5.4882812 16.787109 C 2.4761556 16.787109 0 19.263266 0 22.275391 L 0 25.599609 L 0 28.925781 C 0 31.937906 2.4761556 34.412109 5.4882812 34.412109 L 10.923828 34.412109 C 20.654191 44.130661 22.433594 45.767578 22.433594 45.767578 A 1.60016 1.60016 0 0 0 25.066406 44.544922 L 25.066406 30.871094 C 27.208054 30.146086 28.800781 28.101768 28.800781 25.599609 C 28.800781 23.09745 27.208054 21.055086 25.066406 20.330078 L 25.066406 6.6542969 A 1.60016 1.60016 0 0 0 23.417969 5.0566406 z M 21.867188 10.476562 L 21.867188 21.587891 A 1.60016 1.60016 0 0 0 23.466797 23.1875 C 24.663956 23.1875 25.599609 24.021511 25.599609 25.599609 C 25.599609 27.177709 24.663956 28.011719 23.466797 28.011719 A 1.60016 1.60016 0 0 0 21.867188 29.613281 L 21.867188 40.722656 C 21.202016 40.096774 21.165069 40.133819 12.710938 31.679688 A 1.60016 1.60016 0 0 0 11.580078 31.212891 L 5.4882812 31.212891 C 4.1936038 31.212891 3.1992188 30.220459 3.1992188 28.925781 L 3.1992188 25.599609 L 3.1992188 22.275391 C 3.1992188 20.980713 4.1936038 19.988281 5.4882812 19.988281 L 11.580078 19.988281 A 1.60016 1.60016 0 0 0 12.710938 19.521484 C 21.165069 11.067353 21.202016 11.102446 21.867188 10.476562 z M 42.605469 11.570312 A 1.60016 1.60016 0 0 0 41.884766 11.761719 L 34.458984 15.650391 A 1.60016 1.60016 0 1 0 35.941406 18.482422 L 43.369141 14.597656 A 1.60016 1.60016 0 0 0 42.605469 11.570312 z M 35.199219 24 A 1.60016 1.60016 0 1 0 35.199219 27.199219 L 49.599609 27.199219 A 1.60016 1.60016 0 1 0 49.599609 24 L 35.199219 24 z M 35.173828 32.904297 A 1.60016 1.60016 0 0 0 34.458984 35.931641 L 41.884766 39.816406 A 1.60016 1.60016 0 1 0 43.369141 36.982422 L 35.941406 33.095703 A 1.60016 1.60016 0 0 0 35.173828 32.904297 z "
     transform="scale(0.93749999)"
     id="path4167" /></svg>