<?xml version="1.0" encoding="UTF-8" standalone="no"?>
<svg
   xmlns:dc="http://purl.org/dc/elements/1.1/"
   xmlns:cc="http://creativecommons.org/ns#"
   xmlns:rdf="http://www.w3.org/1999/02/22-rdf-syntax-ns#"
   xmlns:svg="http://www.w3.org/2000/svg"
   xmlns="http://www.w3.org/2000/svg"
   xmlns:sodipodi="http://sodipodi.sourceforge.net/DTD/sodipodi-0.dtd"
   xmlns:inkscape="http://www.inkscape.org/namespaces/inkscape"
   enable-background="new 0 0 48 48"
   height="51.200001"
   id="Layer_1"
   version="1.1"
   viewBox="0 0 48 48"
   width="51.200001"
   xml:space="preserve"
   sodipodi:docname="media-image-light.svg"
   inkscape:version="0.92.1 r15371"><metadata
     id="metadata9"><rdf:RDF><cc:Work
         rdf:about=""><dc:format>image/svg+xml</dc:format><dc:type
           rdf:resource="http://purl.org/dc/dcmitype/StillImage" /><dc:title /></cc:Work></rdf:RDF></metadata><defs
     id="defs7" /><sodipodi:namedview
     pagecolor="#ffffff"
     bordercolor="#666666"
     borderopacity="1"
     objecttolerance="10"
     gridtolerance="10"
     guidetolerance="10"
     inkscape:pageopacity="0"
     inkscape:pageshadow="2"
     inkscape:window-width="1248"
     inkscape:window-height="1028"
     id="namedview5"
     showgrid="false"
     inkscape:zoom="8"
     inkscape:cx="29.047051"
     inkscape:cy="23.052547"
     inkscape:window-x="65"
     inkscape:window-y="24"
     inkscape:window-maximized="0"
     inkscape:current-layer="Layer_1"><inkscape:grid
       type="xygrid"
       id="grid4135"
       originx="0"
       originy="0"
       spacingx="1"
       spacingy="1" /></sodipodi:namedview><path
     style="color:#000000;font-style:normal;font-variant:normal;font-weight:normal;font-stretch:normal;font-size:medium;line-height:normal;font-family:sans-serif;font-variant-ligatures:normal;font-variant-position:normal;font-variant-caps:normal;font-variant-numeric:normal;font-variant-alternates:normal;font-feature-settings:normal;text-indent:0;text-align:start;text-decoration:none;text-decoration-line:none;text-decoration-style:solid;text-decoration-color:#000000;letter-spacing:normal;word-spacing:normal;text-transform:none;writing-mode:lr-tb;direction:ltr;text-orientation:mixed;dominant-baseline:auto;baseline-shift:baseline;text-anchor:start;white-space:normal;shape-padding:0;clip-rule:nonzero;display:inline;overflow:visible;visibility:visible;opacity:1;isolation:auto;mix-blend-mode:normal;color-interpolation:sRGB;color-interpolation-filters:linearRGB;solid-color:#000000;solid-opacity:1;vector-effect:none;fill:#ffffff;fill-opacity:0.78431374;fill-rule:evenodd;stroke:none;stroke-width:3.20000005;stroke-linecap:round;stroke-linejoin:round;stroke-miterlimit:4;stroke-dasharray:none;stroke-dashoffset:0;stroke-opacity:1;color-rendering:auto;image-rendering:auto;shape-rendering:auto;text-rendering:auto;enable-background:accumulate"
     d="M 32 8 C 28.778881 8 26.132812 10.646068 26.132812 13.867188 C 26.132812 17.088306 28.778881 19.732422 32 19.732422 C 35.221119 19.732422 37.867188 17.088306 37.867188 13.867188 C 37.867188 10.646068 35.221119 8 32 8 z M 32 11.199219 C 33.491711 11.199219 34.666016 12.375477 34.666016 13.867188 C 34.666016 15.358898 33.491711 16.533203 32 16.533203 C 30.508289 16.533203 29.333984 15.358898 29.333984 13.867188 C 29.333984 12.375477 30.508289 11.199219 32 11.199219 z M 18.919922 20.267578 A 1.60016 1.60016 0 0 0 17.802734 20.736328 L 0.46875 38.068359 A 1.60016 1.60016 0 1 0 2.7304688 40.332031 L 18.925781 24.136719 L 37.792969 43.255859 A 1.60016 1.60016 0 1 0 40.072266 41.009766 L 35.519531 36.396484 L 40.0625 32.074219 L 48.498047 40.09375 A 1.600361 1.600361 0 1 0 50.701172 37.773438 L 41.164062 28.707031 A 1.60016 1.60016 0 0 0 39.998047 28.269531 A 1.60016 1.60016 0 0 0 38.958984 28.708984 L 33.271484 34.117188 L 20.072266 20.744141 A 1.60016 1.60016 0 0 0 18.919922 20.267578 z "
     transform="scale(0.93749999)"
     id="path4133" /></svg>